<svg width="16" height="17" viewBox="0 0 16 17" fill="none" xmlns="http://www.w3.org/2000/svg">
<g clip-path="url(#clip0_2909_23)">
<path d="M0 8.8584C0 4.4472 3.5888 0.858398 8 0.858398C9.78156 0.858398 11.4678 1.43158 12.8765 2.516L11.0174 4.93093C10.1464 4.26046 9.10301 3.90602 8 3.90602C5.26926 3.90602 3.04762 6.12766 3.04762 8.8584C3.04762 11.5891 5.26926 13.8108 8 13.8108C10.1994 13.8108 12.0684 12.3698 12.7125 10.3822H8V7.33459H16V8.8584C16 13.2696 12.4112 16.8584 8 16.8584C3.5888 16.8584 0 13.2696 0 8.8584Z" fill="white"/>
</g>
<defs>
<clipPath id="clip0_2909_23">
<rect width="16" height="16" fill="white" transform="translate(0 0.858398)"/>
</clipPath>
</defs>
</svg>
