<svg width="148" height="25" viewBox="0 0 148 25" fill="none" xmlns="http://www.w3.org/2000/svg">
<path d="M35.5791 21H31.8125V5.69287H36.3296L40.6626 17.375L45.2505 5.69287H49.7959V21H46.0151V11.2295L42.0078 21H39.3174L35.5791 11.272V21ZM62.0586 17.5166H56.2246L56.9609 15.2085H61.3364L62.0586 17.5166ZM55.4741 21H51.6226L56.8618 5.69287H61.2515L66.5474 21H62.6958L59.0708 9.24707L55.4741 21ZM74.7461 21H70.9653V8.93555H66.1792V5.69287H79.5322V8.93555H74.7461V21ZM87.5186 5.55127C88.8118 5.55127 89.9211 5.80143 90.8462 6.30176C91.7808 6.80208 92.5124 7.46761 93.041 8.29834C93.5697 9.12907 93.867 10.04 93.9331 11.0312L90.6479 11.1304C90.5347 10.63 90.3411 10.1911 90.0674 9.81348C89.7936 9.42643 89.4491 9.12435 89.0337 8.90723C88.6278 8.68066 88.1463 8.56738 87.5894 8.56738C86.8247 8.56738 86.1875 8.7609 85.6777 9.14795C85.1774 9.53499 84.7998 10.0872 84.5449 10.8047C84.2995 11.5221 84.1768 12.3717 84.1768 13.3535C84.1768 14.3258 84.2995 15.1707 84.5449 15.8882C84.7998 16.6056 85.1774 17.1626 85.6777 17.5591C86.1875 17.9461 86.8153 18.1396 87.561 18.1396C88.118 18.1396 88.6042 18.0311 89.0195 17.814C89.4443 17.5874 89.7936 17.2853 90.0674 16.9077C90.3411 16.5207 90.5347 16.077 90.6479 15.5767L93.9331 15.6758C93.867 16.6576 93.5697 17.5638 93.041 18.3945C92.5124 19.2253 91.7855 19.8955 90.8604 20.4053C89.9447 20.9056 88.8449 21.1558 87.561 21.1558C85.3709 21.1558 83.6812 20.4761 82.4917 19.1167C81.3117 17.7573 80.7217 15.8363 80.7217 13.3535C80.7217 10.8708 81.3117 8.94971 82.4917 7.59033C83.6717 6.23096 85.3473 5.55127 87.5186 5.55127ZM107.003 5.69287H110.77V21H107.003V14.8545H100.617V21H96.8501V5.69287H100.617V11.8384H107.003V5.69287ZM118.331 21H114.564V5.69287H119.082L123.415 17.375L128.002 5.69287H132.548V21H128.767V11.2295L124.76 21H122.069L118.331 11.272V21ZM146.184 17.9697V21H136.173V5.69287H146.184V8.75146H139.939V12.1357H145.476V14.5854H139.939V17.9697H146.184Z" fill="#18181B"/>
<path d="M12.5 0L14.12 6.98292L19.258 1.98433L16.8456 8.73455L23.8704 7.30731L18.1915 11.6817L24.8728 14.2789L17.7304 14.8886L21.9469 20.6858L15.6087 17.3372L16.0217 24.4937L12.5 18.25L8.97834 24.4937L9.39132 17.3372L3.05313 20.6858L7.26962 14.8886L0.127232 14.2789L6.80853 11.6817L1.1296 7.30731L8.15444 8.73455L5.74199 1.98433L10.88 6.98292L12.5 0Z" fill="#505050"/>
</svg>
